<?xml version="1.0" encoding="UTF-8" standalone="no"?>
<!DOCTYPE svg PUBLIC "-//W3C//DTD SVG 1.1//EN"
 "http://www.w3.org/Graphics/SVG/1.1/DTD/svg11.dtd">
<!-- Generated by graphviz version 2.40.1 (20161225.0304)
 -->
<!-- Title: %3 Pages: 1 -->
<svg width="166pt" height="175pt"
 viewBox="0.00 0.00 166.00 175.00" xmlns="http://www.w3.org/2000/svg" xmlns:xlink="http://www.w3.org/1999/xlink">
<g id="graph0" class="graph" transform="scale(1 1) rotate(0) translate(4 171)">
<title>%3</title>
<polygon fill="#ffffff" stroke="transparent" points="-4,4 -4,-171 162,-171 162,4 -4,4"/>
<g id="clust1" class="cluster">
<title>cluster_2</title>
<polygon fill="#ffffff" stroke="transparent" points="56,-114 56,-159 102,-159 102,-114 56,-114"/>
</g>
<g id="clust2" class="cluster">
<title>cluster_1</title>
<polygon fill="#ffffff" stroke="transparent" points="40,-61 40,-106 118,-106 118,-61 40,-61"/>
</g>
<g id="clust3" class="cluster">
<title>cluster_0</title>
<polygon fill="#ffffff" stroke="transparent" points="8,-8 8,-53 150,-53 150,-8 8,-8"/>
</g>
<!-- 20 -->
<g id="node1" class="node">
<title>20</title>
<ellipse fill="none" stroke="#000000" cx="79" cy="-136.5" rx="14.5" ry="14.5"/>
<text text-anchor="middle" x="79" y="-132.8" font-family="Times,serif" font-size="14.00" fill="#000000">1</text>
</g>
<!-- 10 -->
<g id="node2" class="node">
<title>10</title>
<ellipse fill="none" stroke="#000000" cx="95" cy="-83.5" rx="14.5" ry="14.5"/>
<text text-anchor="middle" x="95" y="-79.8" font-family="Times,serif" font-size="14.00" fill="#000000">3</text>
</g>
<!-- 20&#45;&gt;10 -->
<g id="edge1" class="edge">
<title>20&#45;&gt;10</title>
<path fill="none" stroke="#000000" d="M83.2038,-122.5749C85.136,-116.1745 87.4528,-108.5 89.5197,-101.6534"/>
<polygon fill="#000000" stroke="#000000" points="90.9529,-101.7501 90.7687,-97.5161 88.2724,-100.9408 90.9529,-101.7501"/>
</g>
<!-- 11 -->
<g id="node3" class="node">
<title>11</title>
<ellipse fill="none" stroke="#000000" cx="63" cy="-83.5" rx="14.5" ry="14.5"/>
<text text-anchor="middle" x="63" y="-79.8" font-family="Times,serif" font-size="14.00" fill="#000000">2</text>
</g>
<!-- 20&#45;&gt;11 -->
<g id="edge2" class="edge">
<title>20&#45;&gt;11</title>
<path fill="none" stroke="#000000" d="M74.7962,-122.5749C72.864,-116.1745 70.5472,-108.5 68.4803,-101.6534"/>
<polygon fill="#000000" stroke="#000000" points="69.7276,-100.9408 67.2313,-97.5161 67.0471,-101.7501 69.7276,-100.9408"/>
</g>
<!-- 00 -->
<g id="node4" class="node">
<title>00</title>
<ellipse fill="none" stroke="#000000" cx="127" cy="-30.5" rx="14.5" ry="14.5"/>
<text text-anchor="middle" x="127" y="-26.8" font-family="Times,serif" font-size="14.00" fill="#000000">7</text>
</g>
<!-- 10&#45;&gt;00 -->
<g id="edge3" class="edge">
<title>10&#45;&gt;00</title>
<path fill="none" stroke="#000000" d="M102.5836,-70.9397C106.9673,-63.6792 112.5294,-54.467 117.2373,-46.6695"/>
<polygon fill="#000000" stroke="#000000" points="118.6019,-47.118 119.4709,-42.9701 116.2049,-45.6707 118.6019,-47.118"/>
</g>
<!-- 01 -->
<g id="node5" class="node">
<title>01</title>
<ellipse fill="none" stroke="#000000" cx="95" cy="-30.5" rx="14.5" ry="14.5"/>
<text text-anchor="middle" x="95" y="-26.8" font-family="Times,serif" font-size="14.00" fill="#000000">6</text>
</g>
<!-- 10&#45;&gt;01 -->
<g id="edge4" class="edge">
<title>10&#45;&gt;01</title>
<path fill="none" stroke="#000000" d="M95,-68.7365C95,-62.7638 95,-55.7943 95,-49.4536"/>
<polygon fill="#000000" stroke="#000000" points="96.4001,-49.1842 95,-45.1843 93.6001,-49.1843 96.4001,-49.1842"/>
</g>
<!-- 02 -->
<g id="node6" class="node">
<title>02</title>
<ellipse fill="none" stroke="#000000" cx="63" cy="-30.5" rx="14.5" ry="14.5"/>
<text text-anchor="middle" x="63" y="-26.8" font-family="Times,serif" font-size="14.00" fill="#000000">5</text>
</g>
<!-- 11&#45;&gt;02 -->
<g id="edge5" class="edge">
<title>11&#45;&gt;02</title>
<path fill="none" stroke="#000000" d="M63,-68.7365C63,-62.7638 63,-55.7943 63,-49.4536"/>
<polygon fill="#000000" stroke="#000000" points="64.4001,-49.1842 63,-45.1843 61.6001,-49.1843 64.4001,-49.1842"/>
</g>
<!-- 03 -->
<g id="node7" class="node">
<title>03</title>
<ellipse fill="none" stroke="#000000" cx="31" cy="-30.5" rx="14.5" ry="14.5"/>
<text text-anchor="middle" x="31" y="-26.8" font-family="Times,serif" font-size="14.00" fill="#000000">4</text>
</g>
<!-- 11&#45;&gt;03 -->
<g id="edge6" class="edge">
<title>11&#45;&gt;03</title>
<path fill="none" stroke="#000000" d="M55.4164,-70.9397C51.0327,-63.6792 45.4706,-54.467 40.7627,-46.6695"/>
<polygon fill="#000000" stroke="#000000" points="41.7951,-45.6707 38.5291,-42.9701 39.3981,-47.118 41.7951,-45.6707"/>
</g>
</g>
</svg>
