<?xml version="1.0" encoding="UTF-8" standalone="no"?>
<!DOCTYPE svg PUBLIC "-//W3C//DTD SVG 1.1//EN"
 "http://www.w3.org/Graphics/SVG/1.1/DTD/svg11.dtd">
<!-- Generated by graphviz version 2.40.1 (20161225.0304)
 -->
<!-- Title: %3 Pages: 1 -->
<svg width="198pt" height="228pt"
 viewBox="0.00 0.00 198.00 228.00" xmlns="http://www.w3.org/2000/svg" xmlns:xlink="http://www.w3.org/1999/xlink">
<g id="graph0" class="graph" transform="scale(1 1) rotate(0) translate(4 224)">
<title>%3</title>
<polygon fill="#ffffff" stroke="transparent" points="-4,4 -4,-224 194,-224 194,4 -4,4"/>
<g id="clust1" class="cluster">
<title>cluster_3</title>
<polygon fill="#ffffff" stroke="transparent" points="88,-167 88,-212 134,-212 134,-167 88,-167"/>
</g>
<g id="clust2" class="cluster">
<title>cluster_2</title>
<polygon fill="#ffffff" stroke="transparent" points="72,-114 72,-159 150,-159 150,-114 72,-114"/>
</g>
<g id="clust3" class="cluster">
<title>cluster_1</title>
<polygon fill="#ffffff" stroke="transparent" points="40,-61 40,-106 182,-106 182,-61 40,-61"/>
</g>
<g id="clust4" class="cluster">
<title>cluster_0</title>
<polygon fill="#ffffff" stroke="transparent" points="8,-8 8,-53 118,-53 118,-8 8,-8"/>
</g>
<!-- 30 -->
<g id="node1" class="node">
<title>30</title>
<ellipse fill="none" stroke="#000000" cx="111" cy="-189.5" rx="14.5" ry="14.5"/>
<text text-anchor="middle" x="111" y="-185.8" font-family="Times,serif" font-size="14.00" fill="#000000">1</text>
</g>
<!-- 20 -->
<g id="node2" class="node">
<title>20</title>
<ellipse fill="none" stroke="#000000" cx="127" cy="-136.5" rx="14.5" ry="14.5"/>
<text text-anchor="middle" x="127" y="-132.8" font-family="Times,serif" font-size="14.00" fill="#000000">2</text>
</g>
<!-- 30&#45;&gt;20 -->
<g id="edge1" class="edge">
<title>30&#45;&gt;20</title>
<path fill="none" stroke="#000000" d="M115.2038,-175.5749C117.136,-169.1745 119.4528,-161.5 121.5197,-154.6534"/>
<polygon fill="#000000" stroke="#000000" points="122.9529,-154.7501 122.7687,-150.5161 120.2724,-153.9408 122.9529,-154.7501"/>
</g>
<!-- 21 -->
<g id="node3" class="node">
<title>21</title>
<ellipse fill="none" stroke="#000000" cx="95" cy="-136.5" rx="14.5" ry="14.5"/>
<text text-anchor="middle" x="95" y="-132.8" font-family="Times,serif" font-size="14.00" fill="#000000">3</text>
</g>
<!-- 30&#45;&gt;21 -->
<g id="edge2" class="edge">
<title>30&#45;&gt;21</title>
<path fill="none" stroke="#000000" d="M106.7962,-175.5749C104.864,-169.1745 102.5472,-161.5 100.4803,-154.6534"/>
<polygon fill="#000000" stroke="#000000" points="101.7276,-153.9408 99.2313,-150.5161 99.0471,-154.7501 101.7276,-153.9408"/>
</g>
<!-- 10 -->
<g id="node4" class="node">
<title>10</title>
<ellipse fill="none" stroke="#000000" cx="159" cy="-83.5" rx="14.5" ry="14.5"/>
<text text-anchor="middle" x="159" y="-79.8" font-family="Times,serif" font-size="14.00" fill="#000000">4</text>
</g>
<!-- 20&#45;&gt;10 -->
<g id="edge3" class="edge">
<title>20&#45;&gt;10</title>
<path fill="none" stroke="#000000" d="M134.5836,-123.9397C138.9673,-116.6792 144.5294,-107.467 149.2373,-99.6695"/>
<polygon fill="#000000" stroke="#000000" points="150.6019,-100.118 151.4709,-95.9701 148.2049,-98.6707 150.6019,-100.118"/>
</g>
<!-- 11 -->
<g id="node5" class="node">
<title>11</title>
<ellipse fill="none" stroke="#000000" cx="127" cy="-83.5" rx="14.5" ry="14.5"/>
<text text-anchor="middle" x="127" y="-79.8" font-family="Times,serif" font-size="14.00" fill="#000000">8</text>
</g>
<!-- 20&#45;&gt;11 -->
<g id="edge4" class="edge">
<title>20&#45;&gt;11</title>
<path fill="none" stroke="#000000" d="M127,-121.7365C127,-115.7638 127,-108.7943 127,-102.4536"/>
<polygon fill="#000000" stroke="#000000" points="128.4001,-102.1842 127,-98.1843 125.6001,-102.1843 128.4001,-102.1842"/>
</g>
<!-- 12 -->
<g id="node6" class="node">
<title>12</title>
<ellipse fill="none" stroke="#000000" cx="95" cy="-83.5" rx="14.5" ry="14.5"/>
<text text-anchor="middle" x="95" y="-79.8" font-family="Times,serif" font-size="14.00" fill="#000000">6</text>
</g>
<!-- 21&#45;&gt;12 -->
<g id="edge5" class="edge">
<title>21&#45;&gt;12</title>
<path fill="none" stroke="#000000" d="M95,-121.7365C95,-115.7638 95,-108.7943 95,-102.4536"/>
<polygon fill="#000000" stroke="#000000" points="96.4001,-102.1842 95,-98.1843 93.6001,-102.1843 96.4001,-102.1842"/>
</g>
<!-- 13 -->
<g id="node7" class="node">
<title>13</title>
<ellipse fill="none" stroke="#000000" cx="63" cy="-83.5" rx="14.5" ry="14.5"/>
<text text-anchor="middle" x="63" y="-79.8" font-family="Times,serif" font-size="14.00" fill="#000000">5</text>
</g>
<!-- 21&#45;&gt;13 -->
<g id="edge6" class="edge">
<title>21&#45;&gt;13</title>
<path fill="none" stroke="#000000" d="M87.4164,-123.9397C83.0327,-116.6792 77.4706,-107.467 72.7627,-99.6695"/>
<polygon fill="#000000" stroke="#000000" points="73.7951,-98.6707 70.5291,-95.9701 71.3981,-100.118 73.7951,-98.6707"/>
</g>
<!-- 00 -->
<g id="node8" class="node">
<title>00</title>
<ellipse fill="none" stroke="#000000" cx="95" cy="-30.5" rx="14.5" ry="14.5"/>
<text text-anchor="middle" x="95" y="-26.8" font-family="Times,serif" font-size="14.00" fill="#000000">10</text>
</g>
<!-- 12&#45;&gt;00 -->
<g id="edge7" class="edge">
<title>12&#45;&gt;00</title>
<path fill="none" stroke="#000000" d="M95,-68.7365C95,-62.7638 95,-55.7943 95,-49.4536"/>
<polygon fill="#000000" stroke="#000000" points="96.4001,-49.1842 95,-45.1843 93.6001,-49.1843 96.4001,-49.1842"/>
</g>
<!-- 01 -->
<g id="node9" class="node">
<title>01</title>
<ellipse fill="none" stroke="#000000" cx="63" cy="-30.5" rx="14.5" ry="14.5"/>
<text text-anchor="middle" x="63" y="-26.8" font-family="Times,serif" font-size="14.00" fill="#000000">9</text>
</g>
<!-- 13&#45;&gt;01 -->
<g id="edge8" class="edge">
<title>13&#45;&gt;01</title>
<path fill="none" stroke="#000000" d="M63,-68.7365C63,-62.7638 63,-55.7943 63,-49.4536"/>
<polygon fill="#000000" stroke="#000000" points="64.4001,-49.1842 63,-45.1843 61.6001,-49.1843 64.4001,-49.1842"/>
</g>
<!-- 02 -->
<g id="node10" class="node">
<title>02</title>
<ellipse fill="none" stroke="#000000" cx="31" cy="-30.5" rx="14.5" ry="14.5"/>
<text text-anchor="middle" x="31" y="-26.8" font-family="Times,serif" font-size="14.00" fill="#000000">7</text>
</g>
<!-- 13&#45;&gt;02 -->
<g id="edge9" class="edge">
<title>13&#45;&gt;02</title>
<path fill="none" stroke="#000000" d="M55.4164,-70.9397C51.0327,-63.6792 45.4706,-54.467 40.7627,-46.6695"/>
<polygon fill="#000000" stroke="#000000" points="41.7951,-45.6707 38.5291,-42.9701 39.3981,-47.118 41.7951,-45.6707"/>
</g>
</g>
</svg>
